{"asset":{"version":"2.0","generator":"circuit-json-to-gltf"},"scene":0,"scenes":[{"name":"Scene","nodes":[0,1,2,3,4]}],"nodes":[{"name":"Box0","mesh":0},{"name":"OBJBox1","mesh":1},{"name":"LED","mesh":2},{"name":"SW1","mesh":3},{"name":"R1","mesh":4}],"meshes":[{"name":"BoxMesh0","primitives":[{"attributes":{"POSITION":0,"NORMAL":1,"TEXCOORD_0":2},"indices":3,"material":3,"mode":4},{"attributes":{"POSITION":4,"NORMAL":5,"TEXCOORD_0":6},"indices":7,"material":3,"mode":4},{"attributes":{"POSITION":8,"NORMAL":9,"TEXCOORD_0":10},"indices":11,"material":1,"mode":4},{"attributes":{"POSITION":12,"NORMAL":13,"TEXCOORD_0":14},"indices":15,"material":2,"mode":4},{"attributes":{"POSITION":16,"NORMAL":17,"TEXCOORD_0":18},"indices":19,"material":3,"mode":4},{"attributes":{"POSITION":20,"NORMAL":21,"TEXCOORD_0":22},"indices":23,"material":3,"mode":4}]},{"name":"OBJMesh1","primitives":[{"attributes":{"POSITION":24,"NORMAL":25,"TEXCOORD_0":26},"indices":27,"material":4,"mode":4},{"attributes":{"POSITION":28,"NORMAL":29,"TEXCOORD_0":30},"indices":31,"material":5,"mode":4},{"attributes":{"POSITION":32,"NORMAL":33,"TEXCOORD_0":34},"indices":35,"material":6,"mode":4},{"attributes":{"POSITION":36,"NORMAL":37,"TEXCOORD_0":38},"indices":39,"material":7,"mode":4}]},{"name":"LED","primitives":[{"attributes":{"POSITION":40,"NORMAL":41,"TEXCOORD_0":42},"indices":43,"material":8,"mode":4}]},{"name":"SW1","primitives":[{"attributes":{"POSITION":44,"NORMAL":45,"TEXCOORD_0":46},"indices":47,"material":9,"mode":4}]},{"name":"R1","primitives":[{"attributes":{"POSITION":48,"NORMAL":49,"TEXCOORD_0":50},"indices":51,"material":10,"mode":4}]}],"materials":[{"name":"Default","pbrMetallicRoughness":{"baseColorFactor":[0.35,0.35,0.35,0.5],"metallicFactor":0.05,"roughnessFactor":0.95},"alphaMode":"BLEND"},{"name":"TopMaterial_1","pbrMetallicRoughness":{"baseColorFactor":[1,1,1,1],"metallicFactor":0,"roughnessFactor":0.8,"baseColorTexture":{"index":0}},"alphaMode":"OPAQUE"},{"name":"BottomMaterial_2","pbrMetallicRoughness":{"baseColorFactor":[1,1,1,1],"metallicFactor":0,"roughnessFactor":0.8,"baseColorTexture":{"index":1}},"alphaMode":"OPAQUE"},{"name":"GreenSideMaterial_3","pbrMetallicRoughness":{"baseColorFactor":[0,0.55,0,1],"metallicFactor":0,"roughnessFactor":0.8},"alphaMode":"OPAQUE"},{"name":"OBJ_1","pbrMetallicRoughness":{"baseColorFactor":[0.8509803921568627,0.8509803921568627,0.8509803921568627,1],"metallicFactor":0.05,"roughnessFactor":0.95},"alphaMode":"OPAQUE"},{"name":"OBJ_2","pbrMetallicRoughness":{"baseColorFactor":[0.17647058823529413,0.17647058823529413,0.17647058823529413,1],"metallicFactor":0.05,"roughnessFactor":0.95},"alphaMode":"OPAQUE"},{"name":"OBJ_3","pbrMetallicRoughness":{"baseColorFactor":[0.9490196078431372,0.7607843137254902,0.1803921568627451,1],"metallicFactor":0.05,"roughnessFactor":0.95},"alphaMode":"OPAQUE"},{"name":"OBJ_4","pbrMetallicRoughness":{"baseColorFactor":[0.2235294117647059,0.2235294117647059,0.2235294117647059,1],"metallicFactor":0.05,"roughnessFactor":0.95},"alphaMode":"OPAQUE"},{"name":"Material_8","pbrMetallicRoughness":{"baseColorFactor":[0.5019607843137255,0.5019607843137255,0.5019607843137255,0.5],"metallicFactor":0.05,"roughnessFactor":0.95},"alphaMode":"BLEND"},{"name":"Material_9","pbrMetallicRoughness":{"baseColorFactor":[0.5019607843137255,0.5019607843137255,0.5019607843137255,0.5],"metallicFactor":0.05,"roughnessFactor":0.95},"alphaMode":"BLEND"},{"name":"Material_10","pbrMetallicRoughness":{"baseColorFactor":[0.5019607843137255,0.5019607843137255,0.5019607843137255,0.5],"metallicFactor":0.05,"roughnessFactor":0.95},"alphaMode":"BLEND"}],"accessors":[{"bufferView":0,"componentType":5126,"count":4,"type":"VEC3","min":[-6,-0.8,15],"max":[6,0.8,15]},{"bufferView":1,"componentType":5126,"count":4,"type":"VEC3","min":[0,0,1],"max":[0,0,1]},{"bufferView":2,"componentType":5126,"count":4,"type":"VEC2"},{"bufferView":3,"componentType":5123,"count":6,"type":"SCALAR"},{"bufferView":4,"componentType":5126,"count":4,"type":"VEC3","min":[-6,-0.8,-15],"max":[6,0.8,-15]},{"bufferView":5,"componentType":5126,"count":4,"type":"VEC3","min":[0,0,-1],"max":[0,0,-1]},{"bufferView":6,"componentType":5126,"count":4,"type":"VEC2"},{"bufferView":7,"componentType":5123,"count":6,"type":"SCALAR"},{"bufferView":8,"componentType":5126,"count":4,"type":"VEC3","min":[-6,0.8,-15],"max":[6,0.8,15]},{"bufferView":9,"componentType":5126,"count":4,"type":"VEC3","min":[0,1,0],"max":[0,1,0]},{"bufferView":10,"componentType":5126,"count":4,"type":"VEC2"},{"bufferView":11,"componentType":5123,"count":6,"type":"SCALAR"},{"bufferView":12,"componentType":5126,"count":4,"type":"VEC3","min":[-6,-0.8,-15],"max":[6,-0.8,15]},{"bufferView":13,"componentType":5126,"count":4,"type":"VEC3","min":[0,-1,0],"max":[0,-1,0]},{"bufferView":14,"componentType":5126,"count":4,"type":"VEC2"},{"bufferView":15,"componentType":5123,"count":6,"type":"SCALAR"},{"bufferView":16,"componentType":5126,"count":4,"type":"VEC3","min":[6,-0.8,-15],"max":[6,0.8,15]},{"bufferView":17,"componentType":5126,"count":4,"type":"VEC3","min":[1,0,0],"max":[1,0,0]},{"bufferView":18,"componentType":5126,"count":4,"type":"VEC2"},{"bufferView":19,"componentType":5123,"count":6,"type":"SCALAR"},{"bufferView":20,"componentType":5126,"count":4,"type":"VEC3","min":[-6,-0.8,-15],"max":[-6,0.8,15]},{"bufferView":21,"componentType":5126,"count":4,"type":"VEC3","min":[-1,0,0],"max":[-1,0,0]},{"bufferView":22,"componentType":5126,"count":4,"type":"VEC2"},{"bufferView":23,"componentType":5123,"count":6,"type":"SCALAR"},{"bufferView":24,"componentType":5126,"count":36981,"type":"VEC3","min":[-4.47,-0.15000000000000058,-15.38749940000003],"max":[4.47,3.95,-8.08749940000003]},{"bufferView":25,"componentType":5126,"count":36981,"type":"VEC3","min":[-5.574800000000001,-27.898799999999998,-1.6656000000000015],"max":[5.574800000000001,42.65416302,1.6656]},{"bufferView":26,"componentType":5126,"count":36981,"type":"VEC2"},{"bufferView":27,"componentType":5123,"count":36981,"type":"SCALAR"},{"bufferView":28,"componentType":5126,"count":6978,"type":"VEC3","min":[-4.17,0.09999999999999964,-15.08749940000003],"max":[4.17,3.6500000000000004,-8.08749940000003]},{"bufferView":29,"componentType":5126,"count":6978,"type":"VEC3","min":[-0.8670000000000003,-2.1411149200000024,-6.593000000000001],"max":[0.8670000000000003,1.6575000000000004,3.9789999999999996]},{"bufferView":30,"componentType":5126,"count":6978,"type":"VEC2"},{"bufferView":31,"componentType":5123,"count":6978,"type":"SCALAR"},{"bufferView":32,"componentType":5126,"count":1716,"type":"VEC3","min":[-3.425,0.6999999999999995,-14.63968640000003],"max":[3.425,2.66,-7.48749940000003]},{"bufferView":33,"componentType":5126,"count":1716,"type":"VEC3","min":[-0.16999999999999993,-1.4999999999999991,-0.020705599999999998],"max":[0.16999999999999993,1.4999999999999991,0.07999999999999999]},{"bufferView":34,"componentType":5126,"count":1716,"type":"VEC2"},{"bufferView":35,"componentType":5123,"count":1716,"type":"SCALAR"},{"bufferView":36,"componentType":5126,"count":969,"type":"VEC3","min":[-1.053215,0.7499999999999999,-12.76259640000003],"max":[0.971175,0.7600000000000001,-12.25040140000003]},{"bufferView":37,"componentType":5126,"count":969,"type":"VEC3","min":[-0.0049999999999999975,-0.035050405115999994,-0.0025609799999999987],"max":[0.0049999999999999975,2.2104999999420333e-8,0.0026829299999999987]},{"bufferView":38,"componentType":5126,"count":969,"type":"VEC2"},{"bufferView":39,"componentType":5123,"count":969,"type":"SCALAR"},{"bufferView":40,"componentType":5126,"count":24,"type":"VEC3","min":[-1.4,0.8,11.5],"max":[1.4,1.8,12.5]},{"bufferView":41,"componentType":5126,"count":24,"type":"VEC3","min":[-1,-1,-1],"max":[1,1,1]},{"bufferView":42,"componentType":5126,"count":24,"type":"VEC2"},{"bufferView":43,"componentType":5123,"count":36,"type":"SCALAR"},{"bufferView":44,"componentType":5126,"count":24,"type":"VEC3","min":[-4.225,0.8,-3.225],"max":[4.225,2.8,3.225]},{"bufferView":45,"componentType":5126,"count":24,"type":"VEC3","min":[-1,-1,-1],"max":[1,1,1]},{"bufferView":46,"componentType":5126,"count":24,"type":"VEC2"},{"bufferView":47,"componentType":5123,"count":36,"type":"SCALAR"},{"bufferView":48,"componentType":5126,"count":24,"type":"VEC3","min":[-1.4,0.8,6.5],"max":[1.4,1.8,7.5]},{"bufferView":49,"componentType":5126,"count":24,"type":"VEC3","min":[-1,-1,-1],"max":[1,1,1]},{"bufferView":50,"componentType":5126,"count":24,"type":"VEC2"},{"bufferView":51,"componentType":5123,"count":36,"type":"SCALAR"}],"bufferViews":[{"buffer":0,"byteOffset":0,"byteLength":48,"target":34962},{"buffer":0,"byteOffset":48,"byteLength":48,"target":34962},{"buffer":0,"byteOffset":96,"byteLength":32,"target":34962},{"buffer":0,"byteOffset":128,"byteLength":12,"target":34963},{"buffer":0,"byteOffset":140,"byteLength":48,"target":34962},{"buffer":0,"byteOffset":188,"byteLength":48,"target":34962},{"buffer":0,"byteOffset":236,"byteLength":32,"target":34962},{"buffer":0,"byteOffset":268,"byteLength":12,"target":34963},{"buffer":0,"byteOffset":280,"byteLength":48,"target":34962},{"buffer":0,"byteOffset":328,"byteLength":48,"target":34962},{"buffer":0,"byteOffset":376,"byteLength":32,"target":34962},{"buffer":0,"byteOffset":408,"byteLength":12,"target":34963},{"buffer":0,"byteOffset":420,"byteLength":48,"target":34962},{"buffer":0,"byteOffset":468,"byteLength":48,"target":34962},{"buffer":0,"byteOffset":516,"byteLength":32,"target":34962},{"buffer":0,"byteOffset":548,"byteLength":12,"target":34963},{"buffer":0,"byteOffset":560,"byteLength":48,"target":34962},{"buffer":0,"byteOffset":608,"byteLength":48,"target":34962},{"buffer":0,"byteOffset":656,"byteLength":32,"target":34962},{"buffer":0,"byteOffset":688,"byteLength":12,"target":34963},{"buffer":0,"byteOffset":700,"byteLength":48,"target":34962},{"buffer":0,"byteOffset":748,"byteLength":48,"target":34962},{"buffer":0,"byteOffset":796,"byteLength":32,"target":34962},{"buffer":0,"byteOffset":828,"byteLength":12,"target":34963},{"buffer":0,"byteOffset":840,"byteLength":443772,"target":34962},{"buffer":0,"byteOffset":444612,"byteLength":443772,"target":34962},{"buffer":0,"byteOffset":888384,"byteLength":295848,"target":34962},{"buffer":0,"byteOffset":1184232,"byteLength":73962,"target":34963},{"buffer":0,"byteOffset":1258194,"byteLength":83736,"target":34962},{"buffer":0,"byteOffset":1341930,"byteLength":83736,"target":34962},{"buffer":0,"byteOffset":1425666,"byteLength":55824,"target":34962},{"buffer":0,"byteOffset":1481490,"byteLength":13956,"target":34963},{"buffer":0,"byteOffset":1495446,"byteLength":20592,"target":34962},{"buffer":0,"byteOffset":1516038,"byteLength":20592,"target":34962},{"buffer":0,"byteOffset":1536630,"byteLength":13728,"target":34962},{"buffer":0,"byteOffset":1550358,"byteLength":3432,"target":34963},{"buffer":0,"byteOffset":1553790,"byteLength":11628,"target":34962},{"buffer":0,"byteOffset":1565418,"byteLength":11628,"target":34962},{"buffer":0,"byteOffset":1577046,"byteLength":7752,"target":34962},{"buffer":0,"byteOffset":1584798,"byteLength":1938,"target":34963},{"buffer":0,"byteOffset":1586736,"byteLength":288,"target":34962},{"buffer":0,"byteOffset":1587024,"byteLength":288,"target":34962},{"buffer":0,"byteOffset":1587312,"byteLength":192,"target":34962},{"buffer":0,"byteOffset":1587504,"byteLength":72,"target":34963},{"buffer":0,"byteOffset":1587576,"byteLength":288,"target":34962},{"buffer":0,"byteOffset":1587864,"byteLength":288,"target":34962},{"buffer":0,"byteOffset":1588152,"byteLength":192,"target":34962},{"buffer":0,"byteOffset":1588344,"byteLength":72,"target":34963},{"buffer":0,"byteOffset":1588416,"byteLength":288,"target":34962},{"buffer":0,"byteOffset":1588704,"byteLength":288,"target":34962},{"buffer":0,"byteOffset":1588992,"byteLength":192,"target":34962},{"buffer":0,"byteOffset":1589184,"byteLength":72,"target":34963},{"buffer":0,"byteOffset":1589256,"byteLength":28662},{"buffer":0,"byteOffset":1617918,"byteLength":22602}],"images":[{"mimeType":"image/png","bufferView":52},{"mimeType":"image/png","bufferView":53}],"textures":[{"source":0,"sampler":0},{"source":1,"sampler":0}],"samplers":[{"magFilter":9729,"minFilter":9987,"wrapS":10497,"wrapT":10497}],"buffers":[{"byteLength":1640520,"uri":"data:application/octet-stream;base64,"}]}