{"asset":{"version":"2.0","generator":"jscad-plan-to-gltf"},"buffers":[{"byteLength":239760,"uri":"data:application/octet-stream;base64,"}],"bufferViews":[{"buffer":0,"byteOffset":0,"byteLength":6768,"target":34962},{"buffer":0,"byteOffset":6768,"byteLength":6768,"target":34962},{"buffer":0,"byteOffset":13536,"byteLength":6768,"target":34962},{"buffer":0,"byteOffset":20304,"byteLength":6768,"target":34962},{"buffer":0,"byteOffset":27072,"byteLength":6768,"target":34962},{"buffer":0,"byteOffset":33840,"byteLength":6768,"target":34962},{"buffer":0,"byteOffset":40608,"byteLength":6768,"target":34962},{"buffer":0,"byteOffset":47376,"byteLength":6768,"target":34962},{"buffer":0,"byteOffset":54144,"byteLength":6768,"target":34962},{"buffer":0,"byteOffset":60912,"byteLength":6768,"target":34962},{"buffer":0,"byteOffset":67680,"byteLength":6768,"target":34962},{"buffer":0,"byteOffset":74448,"byteLength":6768,"target":34962},{"buffer":0,"byteOffset":81216,"byteLength":6768,"target":34962},{"buffer":0,"byteOffset":87984,"byteLength":6768,"target":34962},{"buffer":0,"byteOffset":94752,"byteLength":6768,"target":34962},{"buffer":0,"byteOffset":101520,"byteLength":6768,"target":34962},{"buffer":0,"byteOffset":108288,"byteLength":6768,"target":34962},{"buffer":0,"byteOffset":115056,"byteLength":6768,"target":34962},{"buffer":0,"byteOffset":121824,"byteLength":6768,"target":34962},{"buffer":0,"byteOffset":128592,"byteLength":6768,"target":34962},{"buffer":0,"byteOffset":135360,"byteLength":6768,"target":34962},{"buffer":0,"byteOffset":142128,"byteLength":6768,"target":34962},{"buffer":0,"byteOffset":148896,"byteLength":6768,"target":34962},{"buffer":0,"byteOffset":155664,"byteLength":6768,"target":34962},{"buffer":0,"byteOffset":162432,"byteLength":25776,"target":34962},{"buffer":0,"byteOffset":188208,"byteLength":25776,"target":34962},{"buffer":0,"byteOffset":213984,"byteLength":25776,"target":34962}],"accessors":[{"bufferView":0,"componentType":5126,"count":564,"type":"VEC3","min":[-2.6500000953674316,-2.2049999237060547,0],"max":[-1.4500000476837158,-1.6050000190734863,1.0499999523162842]},{"bufferView":1,"componentType":5126,"count":564,"type":"VEC3"},{"bufferView":2,"componentType":5126,"count":564,"type":"VEC3"},{"bufferView":3,"componentType":5126,"count":564,"type":"VEC3","min":[-2.6500000953674316,-0.9350000023841858,0],"max":[-1.4500000476837158,-0.33500000834465027,1.0499999523162842]},{"bufferView":4,"componentType":5126,"count":564,"type":"VEC3"},{"bufferView":5,"componentType":5126,"count":564,"type":"VEC3"},{"bufferView":6,"componentType":5126,"count":564,"type":"VEC3","min":[-2.6500000953674316,0.33500000834465027,0],"max":[-1.4500000476837158,0.9350000023841858,1.0499999523162842]},{"bufferView":7,"componentType":5126,"count":564,"type":"VEC3"},{"bufferView":8,"componentType":5126,"count":564,"type":"VEC3"},{"bufferView":9,"componentType":5126,"count":564,"type":"VEC3","min":[-2.6500000953674316,1.6050000190734863,0],"max":[-1.4500000476837158,2.2049999237060547,1.0499999523162842]},{"bufferView":10,"componentType":5126,"count":564,"type":"VEC3"},{"bufferView":11,"componentType":5126,"count":564,"type":"VEC3"},{"bufferView":12,"componentType":5126,"count":564,"type":"VEC3","min":[1.4500000476837158,-2.2049999237060547,0],"max":[2.6500000953674316,-1.6050000190734863,1.0499999523162842]},{"bufferView":13,"componentType":5126,"count":564,"type":"VEC3"},{"bufferView":14,"componentType":5126,"count":564,"type":"VEC3"},{"bufferView":15,"componentType":5126,"count":564,"type":"VEC3","min":[1.4500000476837158,-0.9350000023841858,0],"max":[2.6500000953674316,-0.33500000834465027,1.0499999523162842]},{"bufferView":16,"componentType":5126,"count":564,"type":"VEC3"},{"bufferView":17,"componentType":5126,"count":564,"type":"VEC3"},{"bufferView":18,"componentType":5126,"count":564,"type":"VEC3","min":[1.4500000476837158,0.33500000834465027,0],"max":[2.6500000953674316,0.9350000023841858,1.0499999523162842]},{"bufferView":19,"componentType":5126,"count":564,"type":"VEC3"},{"bufferView":20,"componentType":5126,"count":564,"type":"VEC3"},{"bufferView":21,"componentType":5126,"count":564,"type":"VEC3","min":[1.4500000476837158,1.6050000190734863,0],"max":[2.6500000953674316,2.2049999237060547,1.0499999523162842]},{"bufferView":22,"componentType":5126,"count":564,"type":"VEC3"},{"bufferView":23,"componentType":5126,"count":564,"type":"VEC3"},{"bufferView":24,"componentType":5126,"count":2148,"type":"VEC3","min":[-1.4574999809265137,-2.305000066757202,0.2750000059604645],"max":[1.4574999809265137,2.305000066757202,1.274999976158142]},{"bufferView":25,"componentType":5126,"count":2148,"type":"VEC3"},{"bufferView":26,"componentType":5126,"count":2148,"type":"VEC3"}],"meshes":[{"name":"soic8_0","primitives":[{"attributes":{"POSITION":0,"NORMAL":1,"COLOR_0":2},"mode":4}]},{"name":"soic8_1","primitives":[{"attributes":{"POSITION":3,"NORMAL":4,"COLOR_0":5},"mode":4}]},{"name":"soic8_2","primitives":[{"attributes":{"POSITION":6,"NORMAL":7,"COLOR_0":8},"mode":4}]},{"name":"soic8_3","primitives":[{"attributes":{"POSITION":9,"NORMAL":10,"COLOR_0":11},"mode":4}]},{"name":"soic8_4","primitives":[{"attributes":{"POSITION":12,"NORMAL":13,"COLOR_0":14},"mode":4}]},{"name":"soic8_5","primitives":[{"attributes":{"POSITION":15,"NORMAL":16,"COLOR_0":17},"mode":4}]},{"name":"soic8_6","primitives":[{"attributes":{"POSITION":18,"NORMAL":19,"COLOR_0":20},"mode":4}]},{"name":"soic8_7","primitives":[{"attributes":{"POSITION":21,"NORMAL":22,"COLOR_0":23},"mode":4}]},{"name":"soic8_8","primitives":[{"attributes":{"POSITION":24,"NORMAL":25,"COLOR_0":26},"mode":4}]}],"nodes":[{"name":"soic8_0","mesh":0},{"name":"soic8_1","mesh":1},{"name":"soic8_2","mesh":2},{"name":"soic8_3","mesh":3},{"name":"soic8_4","mesh":4},{"name":"soic8_5","mesh":5},{"name":"soic8_6","mesh":6},{"name":"soic8_7","mesh":7},{"name":"soic8_8","mesh":8}],"scenes":[{"name":"Scene","nodes":[0,1,2,3,4,5,6,7,8]}],"scene":0}