{
  "scene": 0,
  "scenes": [
    {
      "nodes": [
        0
      ]
    }
  ],
  "nodes": [
    {
      "mesh": 0
    }
  ],
  "meshes": [
    {
      "primitives": [
        {
          "attributes": {
            "POSITION": 1
          },
          "indices": 0,
          "material": 0
        }
      ]
    }
  ],
  "materials": [
    {
      "pbrMetallicRoughness": {
        "baseColorFactor": [
          0,
          0,
          1,
          0.5
        ]
      },
      "alphaMode": "BLEND"
    }
  ],
  "accessors": [
    {
      "bufferView": 0,
      "componentType": 5123,
      "count": 3,
      "type": "SCALAR"
    },
    {
      "bufferView": 1,
      "componentType": 5126,
      "count": 3,
      "type": "VEC3",
      "max": [
        0.5,
        0.5,
        0
      ],
      "min": [
        -0.5,
        -0.5,
        0
      ]
    }
  ],
  "bufferViews": [
    {
      "buffer": 0,
      "byteOffset": 0,
      "byteLength": 6
    },
    {
      "buffer": 0,
      "byteOffset": 6,
      "byteLength": 36
    }
  ],
  "buffers": [
    {
      "uri": "transparent.bin",
      "byteLength": 42
    }
  ]
}